<svg width="301" height="162" viewBox="0 0 301 162" fill="none" xmlns="http://www.w3.org/2000/svg">
<path d="M19.0137 55.3931C36.466 55.3012 49.1188 55.0486 56.9723 54.6353C56.6508 56.5183 56.4442 58.4702 56.3523 60.4909C56.3064 62.4658 56.2834 64.9688 56.2834 68H2.75561C3.12303 59.0902 3.30674 50.7544 3.30674 42.9928C3.30674 35.2311 3.12303 26.8954 2.75561 17.9856H56.2834V30.4547H19.0137V37.0682C21.2182 37.1142 24.479 37.1371 28.7962 37.1371C36.0986 37.1371 43.6535 36.9993 51.4611 36.7238V48.5729C43.6535 48.2974 36.0986 48.1596 28.7962 48.1596C24.479 48.1596 21.2182 48.1825 19.0137 48.2285V55.3931ZM107.826 30.3859C102.866 43.7506 98.4573 56.2886 94.5994 68H73.0367C68.9033 55.462 64.4713 42.9239 59.7409 30.3859H75.9301L83.9214 58.7687L91.8438 30.3859H107.826ZM143.611 50.7774H121.152C121.52 52.7982 122.415 54.4516 123.839 55.7375C125.309 56.9775 127.375 57.5976 130.039 57.5976C131.968 57.5976 133.782 57.2301 135.482 56.4953C137.181 55.7146 138.536 54.6353 139.546 53.2575C142.623 54.773 146.711 56.4035 151.809 58.1487C150.385 61.3636 147.79 63.9355 144.024 65.8644C140.304 67.7474 135.436 68.6889 129.419 68.6889C121.612 68.6889 115.825 66.8978 112.059 63.3155C108.339 59.6872 106.479 54.9338 106.479 49.0551C106.479 43.3143 108.339 38.6527 112.059 35.0704C115.779 31.4881 121.566 29.697 129.419 29.697C134.104 29.697 138.168 30.4777 141.613 32.0392C145.057 33.6007 147.698 35.7823 149.535 38.5838C151.372 41.3394 152.291 44.5084 152.291 48.0907C152.291 49.2848 152.245 50.1804 152.153 50.7774H143.611ZM130.384 40.0994C128.087 40.0994 126.204 40.5357 124.735 41.4083C123.265 42.2809 122.232 43.475 121.635 44.9906H137.893C137.342 43.521 136.446 42.3498 135.206 41.4772C133.966 40.5587 132.358 40.0994 130.384 40.0994ZM173.069 40.5816C174.998 33.6467 179.797 30.1792 187.467 30.1792C188.799 30.1792 190.085 30.271 191.325 30.4547L189.12 45.8862C185.813 44.6462 183.104 44.0262 180.991 44.0262C178.373 44.0262 176.444 44.8069 175.204 46.3684C173.964 47.9299 173.344 50.0196 173.344 52.6374V52.5686L173.275 57.1153C173.275 60.3761 173.367 64.0044 173.551 68H157.086C157.454 61.3865 157.637 55.1405 157.637 49.2618C157.637 43.3832 157.454 37.0912 157.086 30.3859C160.117 30.5236 162.437 30.5925 164.044 30.5925C165.743 30.5925 168.063 30.5236 171.002 30.3859L173.069 40.5816ZM236.525 30.3859L234.94 34.3815C230.577 46.001 226.008 57.2072 221.231 68C218.751 73.5112 215.169 77.9202 210.484 81.227C205.8 84.5796 199.921 86.1871 192.848 86.0493C191.976 82.2373 191.241 79.2521 190.644 77.0935C190.093 74.9809 189.358 72.8453 188.439 70.6867C190.965 71.2838 193.331 71.5823 195.535 71.5823C199.117 71.5823 201.965 70.8245 204.077 69.3089C202.424 64.3947 200.472 59.1131 198.222 53.4641C195.971 47.8151 192.711 40.1224 188.439 30.3859H204.766C205.318 32.6822 206.075 35.346 207.04 38.3771C208.004 41.4083 208.969 44.3247 209.933 47.1262C210.209 47.9988 210.645 49.3307 211.242 51.1219C211.885 52.8671 212.39 54.3367 212.758 55.5308L214.549 50.0885C217.993 40.1224 220.037 33.5548 220.68 30.3859H236.525Z" fill="#FFF6D8"/>
<path d="M43.1254 118.131C53.5967 118.131 58.8324 121.46 58.8324 128.12C58.8324 131.243 58.1205 133.906 56.6968 136.111C55.273 138.27 52.7241 139.969 49.0499 141.209C45.3758 142.403 40.2779 143 33.7563 143H2.75561C3.12303 134.09 3.30674 125.754 3.30674 117.993C3.30674 110.231 3.12303 101.895 2.75561 92.9856H18.9449V93.0545H33.6185C39.3134 93.0545 43.7913 93.5367 47.0521 94.5012C50.3589 95.4197 52.6782 96.7746 54.01 98.5657C55.3879 100.357 56.0768 102.63 56.0768 105.386C56.0768 108.187 55.0893 110.69 53.1145 112.895C51.1855 115.053 47.8558 116.799 43.1254 118.131ZM18.9449 105.593V111.999H32.1718C35.0193 111.999 36.9941 111.747 38.0964 111.242C39.2445 110.736 39.8186 109.818 39.8186 108.486C39.8186 107.43 39.2216 106.695 38.0275 106.281C36.8793 105.822 34.9274 105.593 32.1718 105.593H18.9449ZM32.1718 130.393C34.56 130.393 36.3741 130.301 37.6141 130.118C38.9001 129.888 39.8186 129.52 40.3698 129.015C40.9209 128.464 41.1964 127.729 41.1964 126.811C41.1964 125.617 40.5305 124.767 39.1986 124.262C37.9127 123.711 35.5704 123.435 32.1718 123.435H18.9449V130.393H32.1718ZM106.68 105.386C106.359 111.173 106.198 117.419 106.198 124.124C106.198 130.875 106.359 137.167 106.68 143C103.741 142.862 101.422 142.793 99.7226 142.793C98.1151 142.793 95.7958 142.862 92.7646 143L90.7668 132.873C89.7105 136.547 88.0571 139.28 85.8067 141.071C83.5563 142.816 80.9385 143.689 77.9532 143.689C75.1976 143.689 72.8094 143.092 70.7886 141.898C68.7678 140.658 67.2293 139.004 66.173 136.938C65.1626 134.871 64.6574 132.552 64.6574 129.98V120.06C64.6574 113.951 64.5426 109.06 64.3129 105.386H79.8133C79.5377 112.137 79.3999 118.819 79.3999 125.433C79.3999 127.454 79.8821 129.061 80.8466 130.255C81.857 131.449 83.12 132.046 84.6356 132.046C86.0593 132.046 87.2993 131.426 88.3557 130.186C89.4579 128.9 90.1238 127.155 90.3535 124.951V123.366C90.4453 119.784 90.4913 117.304 90.4913 115.926C90.4913 112.757 90.3994 109.244 90.2157 105.386H106.68ZM157.268 89.4033C156.992 97.9457 156.854 106.878 156.854 116.202C156.854 125.433 156.992 134.366 157.268 143H141.698L141.905 134.733C140.573 137.81 138.644 140.084 136.118 141.553C133.592 142.977 130.607 143.689 127.162 143.689C124.177 143.689 121.49 142.839 119.102 141.14C116.714 139.441 114.854 137.144 113.522 134.251C112.19 131.312 111.524 128.097 111.524 124.606C111.524 121.162 112.19 117.924 113.522 114.893C114.854 111.816 116.714 109.359 119.102 107.521C121.536 105.638 124.292 104.697 127.369 104.697C130.951 104.697 134.006 105.455 136.532 106.97C139.103 108.44 141.009 110.736 142.249 113.859C142.249 111.242 142.158 107.039 141.974 101.252C141.79 95.6494 141.698 91.6996 141.698 89.4033H157.268ZM134.396 132.115C136.646 132.115 138.483 131.495 139.907 130.255C141.331 128.969 142.043 126.949 142.043 124.193C142.043 121.759 141.331 119.968 139.907 118.819C138.483 117.671 136.692 117.097 134.534 117.097C132.467 117.097 130.722 117.763 129.298 119.095C127.92 120.381 127.231 122.08 127.231 124.193C127.231 126.535 127.874 128.441 129.16 129.911C130.446 131.38 132.191 132.115 134.396 132.115ZM207.859 89.4033C207.583 97.9457 207.446 106.878 207.446 116.202C207.446 125.433 207.583 134.366 207.859 143H192.29L192.496 134.733C191.164 137.81 189.236 140.084 186.71 141.553C184.184 142.977 181.198 143.689 177.754 143.689C174.769 143.689 172.082 142.839 169.694 141.14C167.305 139.441 165.445 137.144 164.114 134.251C162.782 131.312 162.116 128.097 162.116 124.606C162.116 121.162 162.782 117.924 164.114 114.893C165.445 111.816 167.305 109.359 169.694 107.521C172.128 105.638 174.883 104.697 177.961 104.697C181.543 104.697 184.597 105.455 187.123 106.97C189.695 108.44 191.601 110.736 192.841 113.859C192.841 111.242 192.749 107.039 192.565 101.252C192.382 95.6494 192.29 91.6996 192.29 89.4033H207.859ZM184.987 132.115C187.238 132.115 189.075 131.495 190.499 130.255C191.922 128.969 192.634 126.949 192.634 124.193C192.634 121.759 191.922 119.968 190.499 118.819C189.075 117.671 187.284 117.097 185.125 117.097C183.058 117.097 181.313 117.763 179.889 119.095C178.512 120.381 177.823 122.08 177.823 124.193C177.823 126.535 178.466 128.441 179.752 129.911C181.038 131.38 182.783 132.115 184.987 132.115ZM258.726 105.386L257.141 109.381C252.778 121.001 248.209 132.207 243.432 143C240.952 148.511 237.37 152.92 232.685 156.227C228.001 159.58 222.122 161.187 215.049 161.049C214.177 157.237 213.442 154.252 212.845 152.094C212.294 149.981 211.559 147.845 210.64 145.687C213.166 146.284 215.532 146.582 217.736 146.582C221.318 146.582 224.166 145.825 226.278 144.309C224.625 139.395 222.673 134.113 220.423 128.464C218.172 122.815 214.912 115.122 210.64 105.386H226.967C227.519 107.682 228.276 110.346 229.241 113.377C230.205 116.408 231.17 119.325 232.134 122.126C232.41 122.999 232.846 124.331 233.443 126.122C234.086 127.867 234.591 129.337 234.959 130.531L236.75 125.089C240.194 115.122 242.238 108.555 242.881 105.386H258.726Z" fill="#FFDC82"/>
</svg>
