<svg width="863" height="863" viewBox="0 0 863 863" fill="none" xmlns="http://www.w3.org/2000/svg">
<path d="M648.89 210.286C645.299 200.327 641.304 190.437 636.928 180.824C628.212 161.691 626.21 143.559 613.964 127.559" stroke="#CCDDE2" stroke-width="7.24" stroke-miterlimit="10"/>
<path d="M585.58 109.22C575.043 98.502 565.187 86.9809 547.28 78.3766C509.437 60.2536 461.049 58.4154 399.284 84.0465" stroke="#CCDDE2" stroke-width="7.24" stroke-miterlimit="10"/>
<path d="M139.616 811.633C79.767 727.034 60.4099 631.388 70.4121 533.567" stroke="#CCDDE2" stroke-width="7.24" stroke-miterlimit="10"/>
<path d="M682.564 395.16V396.204C681.977 415.19 699.522 493.896 749.282 518.897C799.043 543.898 834.521 653.637 722.331 696.692C610.141 739.747 616.251 811.635 616.251 811.635" stroke="#CCDDE2" stroke-width="7.24" stroke-miterlimit="10"/>
<path d="M399.275 165.307V72.327C399.26 65.9392 396.715 59.8176 392.198 55.3008C387.681 50.7839 381.56 48.2394 375.172 48.2234H67.2535C60.8657 48.2394 54.7441 50.7839 50.2273 55.3008C45.7104 59.8176 43.1659 65.9392 43.1499 72.327V509.523C43.1613 515.907 45.7061 522.026 50.2255 526.536C54.7447 531.045 60.8691 533.577 67.2535 533.575H375.172C378.159 533.594 381.121 533.024 383.888 531.901" stroke="black" stroke-width="7.24" stroke-linecap="round" stroke-linejoin="round"/>
<path d="M366.93 62.9551H75.4952C63.6035 62.9551 53.9634 72.5952 53.9634 84.4869V497.355C53.9634 509.247 63.6035 518.887 75.4952 518.887H366.93C378.822 518.887 388.462 509.247 388.462 497.355V84.4869C388.462 72.5952 378.822 62.9551 366.93 62.9551Z" fill="#FFA800"/>
<path d="M361.657 98.2336H84.4272C78.479 98.2336 73.657 103.056 73.657 109.004V172.831C73.657 178.78 78.479 183.602 84.4272 183.602H361.657C367.606 183.602 372.427 178.78 372.427 172.831V109.004C372.427 103.056 367.606 98.2336 361.657 98.2336Z" fill="#FFA800"/>
<path d="M221.213 134.189C226.089 134.189 230.041 130.236 230.041 125.36C230.041 120.484 226.089 116.532 221.213 116.532C216.337 116.532 212.384 120.484 212.384 125.36C212.384 130.236 216.337 134.189 221.213 134.189Z" fill="#D6D6D6"/>
<path d="M196.54 165.309C196.54 158.764 199.139 152.489 203.766 147.862C208.393 143.235 214.669 140.635 221.213 140.635C227.757 140.635 234.032 143.235 238.659 147.862C243.287 152.489 245.886 158.764 245.886 165.309H196.54Z" fill="#D6D6D6"/>
<path d="M223.008 275.071C213.596 275.066 204.394 277.852 196.565 283.079C188.737 288.304 182.636 295.735 179.031 304.429C175.427 313.124 174.483 322.692 176.318 331.924C178.152 341.155 182.684 349.635 189.339 356.29C195.995 362.946 204.475 367.478 213.706 369.312C222.938 371.148 232.506 370.203 241.201 366.599C249.895 362.995 257.326 356.893 262.551 349.065C267.778 341.236 270.564 332.035 270.559 322.622C270.552 310.013 265.54 297.922 256.624 289.007C247.708 280.09 235.617 275.078 223.008 275.071ZM223.008 358.704C221.166 358.704 219.4 357.973 218.098 356.671C216.797 355.369 216.065 353.603 216.065 351.761C216.065 349.921 216.797 348.154 218.098 346.853C219.4 345.55 221.166 344.819 223.008 344.819C224.849 344.819 226.615 345.55 227.917 346.853C229.219 348.154 229.951 349.921 229.951 351.761C229.951 353.603 229.219 355.369 227.917 356.671C226.615 357.973 224.849 358.704 223.008 358.704ZM231.819 305.198C230.326 315.502 229.066 326.368 226.037 336.387C225.295 338.769 220.773 338.769 219.996 336.387C217.825 328.846 216.159 321.168 215.008 313.405C214.076 307.761 210.77 298.631 213.938 293.125C216.691 288.232 224.518 287.628 229.04 290.191C234.658 293.418 232.466 300.107 231.819 305.233V305.198Z" fill="#D6D6D6"/>
<path d="M103.534 221.713H335.845" stroke="white" stroke-width="7.24" stroke-miterlimit="10"/>
<path d="M103.534 244.573H335.845" stroke="white" stroke-width="7.24" stroke-miterlimit="10"/>
<path d="M103.534 391.829H335.845" stroke="white" stroke-width="7.24" stroke-miterlimit="10"/>
<path d="M157.497 413.455H281.882" stroke="white" stroke-width="7.24" stroke-miterlimit="10"/>
<path d="M128.216 555.081C128.216 555.081 169.554 390.817 298.304 350.696L350.637 338.209C350.637 338.209 358.913 301.247 355.867 297.363C352.82 293.48 346.563 285.523 335.103 287.249C323.642 288.975 294.015 289.527 286.43 253.307C278.844 217.087 306.874 130.994 379.72 118.118C452.566 105.242 454.266 158.731 454.266 158.731L400.76 282.718L409.062 382.74L410.106 531.737L128.216 555.081Z" fill="white"/>
<path d="M573.136 428.189C572.273 428.439 561.261 431.641 556.928 439.27C556.103 437.523 554.799 436.047 553.167 435.014C551.535 433.981 549.643 433.434 547.712 433.435H418.391C416.09 433.431 413.856 434.209 412.055 435.64C410.253 437.072 408.991 439.072 408.475 441.314L383.008 550.51C381.282 550.174 379.556 549.967 377.761 549.794L317.662 534.795C315.084 534.148 312.357 534.485 310.015 535.742C307.672 536.997 305.882 539.082 304.993 541.586C304.592 542.711 304.394 543.897 304.406 545.09C304.406 547.801 305.434 550.41 307.281 552.393C309.13 554.376 311.661 555.584 314.365 555.775L342.784 557.603C315.409 570.488 282.106 595.032 254.309 617.582C227.262 575.234 252.643 532.897 271.733 510.096C269.273 484.965 256.811 426.617 194.632 428.205C216.052 400.736 242.762 377.194 275.858 361.435C389.222 487.088 518.913 384.356 521.666 382.147C541.06 394.798 558.416 410.33 573.136 428.205" fill="#2E2E2E"/>
<path d="M561.356 788.645V810.358H186.978V779.601C201.562 780.464 216.906 777.012 230.861 770.72C248.527 762.677 263.785 750.181 276.833 735.924C290.253 721.167 297.623 700.705 306.175 682.91C319.017 656.114 336.026 637.024 363.021 628.938L361.295 636.36C360.949 637.854 360.944 639.407 361.28 640.903C361.617 642.399 362.287 643.801 363.239 645.002C364.192 646.204 365.404 647.175 366.784 647.844C368.164 648.513 369.677 648.862 371.211 648.865H501.179C498.59 671.303 487.673 793.849 561.356 788.671" fill="#2E2E2E"/>
<path d="M501.239 217.588C501.135 229.198 499.622 240.751 496.734 251.996C495.417 257.328 492.589 262.165 488.591 265.929C484.593 269.694 479.593 272.224 474.193 273.217C473.977 265.381 470.646 258.503 465.563 254.231C466.027 247.597 465.96 240.937 465.364 234.313C465.028 229.938 464.501 225.856 463.949 222.188C463.62 220.1 463.145 218.039 462.525 216.018C460.79 214.154 458.747 212.604 456.484 211.435C448.484 206.93 432.018 202.141 401.511 209.183C396.53 210.323 391.843 212.496 387.755 215.56C387.664 215.617 387.583 215.686 387.513 215.767C384.76 218.305 381.256 221.515 377.632 223.18C373.878 224.906 369.959 224.975 366.671 220.894C366.585 220.807 366.542 220.73 366.464 220.643C364.738 218.391 363.09 215.465 360.044 214.887C353.623 213.679 350.499 220.065 349.688 225.433C348.98 230.395 350.438 234.771 352.57 238.939C354.356 242.328 356.688 245.398 359.474 248.026C360.189 248.718 360.844 249.468 361.433 250.27C361.166 250.317 360.902 250.39 360.648 250.486C360.057 250.684 359.481 250.921 358.922 251.193C351.155 254.689 345.623 263.448 345.502 273.7C345.502 274.02 332.479 273.83 330.831 273.7C324.479 273.114 318.223 271.284 313.752 266.494C301.066 252.902 301.127 232.734 306.339 216.958C311.275 201.985 317.558 187.366 325.791 173.895C343.629 144.742 371.306 123.236 406.344 121.303C414.747 120.881 423.169 121.373 431.465 122.77C435.391 123.389 439.274 124.254 443.09 125.359C478.81 140.945 501.481 176.276 501.274 217.588" fill="#2E2E2E"/>
<path d="M480.553 549.93C476.333 560.76 466.287 566.957 458.115 563.738C449.942 560.519 446.732 549.196 450.943 538.365C455.155 527.535 465.209 521.33 473.381 524.557C481.554 527.785 484.773 539.108 480.553 549.938" fill="#FFA800"/>
<path d="M502.266 646.655C502.266 646.655 479.345 806.439 571.03 788.73C662.214 771.099 696.726 400.139 432.786 346.788" stroke="black" stroke-width="7.24" stroke-miterlimit="10"/>
<path d="M287.603 492.827C287.603 492.827 213.627 555.214 253.489 617.609" stroke="black" stroke-width="7.24" stroke-miterlimit="10"/>
<path d="M503.931 602.273C502.663 602.351 500.851 601.505 499.616 601.168C498.052 600.754 496.501 600.311 494.965 599.839C485.953 597.034 477.473 592.74 469.877 587.136C468.151 585.902 465.079 585.108 462.973 585.919C461.801 586.349 460.767 587.086 459.977 588.053C459.187 589.02 458.672 590.182 458.486 591.416C457.839 595.87 460.98 600.228 464.406 603.084C468.471 606.484 472.691 609.617 477.619 611.654C482.375 613.563 487.282 615.073 492.29 616.167C494.559 616.694 496.863 617.03 499.116 617.609" stroke="black" stroke-width="7.24" stroke-miterlimit="10"/>
<path d="M532.324 559.042C533.256 563.961 533.938 569.07 533.472 574.067C533.084 578.295 531.565 583.232 526.862 584.259C525.967 584.495 525.04 584.58 524.117 584.509C506.408 583.465 491.815 577.346 475.151 565.299C458.486 553.251 452.618 580.997 467.841 585.916" stroke="black" stroke-width="7.24" stroke-miterlimit="10"/>
<path d="M468.48 606.431C468.07 606.094 467.682 605.734 467.315 605.352C459.021 596.679 457.519 614.103 466.227 619.229L467.349 619.894C467.936 620.144 468.566 620.438 469.187 620.757C469.481 620.834 469.809 620.964 470.111 621.05M470.111 621.05C477.981 624.502 486.361 626.711 494.611 628.964C486.447 626.297 478.309 623.674 470.111 621.05ZM470.111 621.05C469.403 620.757 468.73 620.463 468.022 620.127C467.805 620.036 467.579 619.967 467.349 619.92C467.202 619.853 467.041 619.826 466.88 619.841C466.72 619.856 466.566 619.913 466.434 620.006C466.237 620.167 466.093 620.384 466.02 620.627C464.682 623.838 465.77 627.885 467.478 630.759C469.274 633.797 472.354 636.135 475.392 637.801C483.565 642.384 493.066 645.093 502.24 646.716C503.942 647.068 505.685 647.182 507.418 647.052" stroke="black" stroke-width="7.24" stroke-miterlimit="10"/>
<path d="M581.42 666.822C581.42 666.822 553.295 618.891 550.162 577.217C548.247 551.422 540.669 545.959 535.25 545.588" stroke="black" stroke-width="7.24" stroke-miterlimit="10"/>
<path d="M526.861 584.251L532.333 559.043L535.25 545.58L556.877 445.765C557.198 444.279 557.181 442.741 556.83 441.261C556.478 439.781 555.8 438.4 554.845 437.217C553.891 436.033 552.683 435.078 551.311 434.422C549.94 433.766 548.438 433.425 546.918 433.425H417.588C415.288 433.423 413.055 434.2 411.254 435.632C409.453 437.063 408.19 439.063 407.672 441.304L382.205 550.508L363.616 630.189L361.89 637.653C361.547 639.148 361.544 640.7 361.883 642.195C362.222 643.69 362.892 645.09 363.846 646.29C364.799 647.491 366.01 648.461 367.39 649.129C368.769 649.798 370.282 650.146 371.815 650.15H501.774" stroke="black" stroke-width="7.24" stroke-miterlimit="10"/>
<path d="M366.516 218.021C366.516 218.021 373.36 188.999 412.005 185.15C450.65 181.301 460.333 210.177 460.333 210.177L459.116 213.085C459.116 213.085 408.311 192.701 380.255 221.793C380.255 221.793 370.149 226.375 366.516 218.039" fill="#FFA800"/>
<path d="M376.941 549.791L316.833 534.775C315.4 534.421 313.907 534.368 312.452 534.62C310.997 534.873 309.611 535.425 308.38 536.242C307.15 537.06 306.103 538.125 305.306 539.368C304.509 540.612 303.98 542.007 303.752 543.467C303.524 544.926 303.602 546.417 303.98 547.845C304.359 549.272 305.031 550.605 305.952 551.759C306.874 552.913 308.026 553.863 309.334 554.548C310.644 555.233 312.08 555.638 313.554 555.738L341.972 557.61" stroke="black" stroke-width="7.24" stroke-miterlimit="10"/>
<path d="M520.889 382.105C520.889 382.105 389.601 488.461 275.047 361.435" stroke="black" stroke-width="7.24" stroke-miterlimit="10"/>
<path d="M270.93 510.076C268.471 484.946 256.018 426.555 193.787 428.186" stroke="black" stroke-width="7.24" stroke-miterlimit="10"/>
<path d="M572.35 428.17C572.35 428.17 560.622 431.397 556.126 439.285" stroke="black" stroke-width="7.24" stroke-miterlimit="10"/>
<path d="M95.8965 811.652H653.317" stroke="black" stroke-width="7.24" stroke-miterlimit="10"/>
<path d="M465.563 254.265C470.818 258.683 474.193 265.898 474.193 274.062C474.193 287.611 464.777 298.571 453.144 298.571C451.828 298.564 450.517 298.411 449.235 298.114C462.784 287.758 465.528 254.265 465.528 254.265" fill="#FFA800"/>
<path d="M388.92 308.957C395.451 312.207 402.598 314.033 409.888 314.314C417.178 314.595 424.444 313.325 431.207 310.588C469.334 294.665 467.876 247.735 463.914 222.225C463.598 220.156 463.149 218.109 462.568 216.098V216.055C458.193 201.47 446.775 189.586 431.733 186.212C402.598 179.627 375.957 196.145 364.902 218.385" stroke="black" stroke-width="7.24" stroke-miterlimit="10"/>
<path d="M462.93 216.553C462.93 216.553 462.809 216.381 462.559 216.096V216.053C459.97 213.136 444.98 199.216 401.588 209.218C396.61 210.356 391.925 212.529 387.841 215.596C387.744 215.651 387.657 215.721 387.582 215.803" stroke="black" stroke-width="7.24" stroke-miterlimit="10"/>
<path d="M347.271 287.25H325.808C310.317 287.25 298.037 273.063 292.695 259.747C285.187 241.02 289.994 221.852 296.751 203.652C302.412 188.42 309.61 173.619 319.077 160.372C340.272 130.728 372.272 113.934 409.053 117.041C412.315 117.317 415.563 117.719 418.796 118.249C468.186 126.258 501.489 167.552 501.239 217.563C501.135 229.181 499.623 240.743 496.734 251.997C495.406 257.324 492.574 262.157 488.576 265.92C484.578 269.682 479.582 272.215 474.184 273.218" stroke="black" stroke-width="7.24" stroke-miterlimit="10"/>
<path d="M361.45 250.27C360.859 249.467 360.204 248.714 359.491 248.018C356.704 245.394 354.37 242.326 352.587 238.939C350.455 234.771 348.997 230.395 349.705 225.433C350.499 220.1 353.623 213.679 360.061 214.887C363.107 215.474 364.73 218.391 366.481 220.643C373.144 229.273 382.317 220.6 387.944 215.388" stroke="black" stroke-width="7.24" stroke-miterlimit="10"/>
<path d="M465.563 254.265C470.818 258.683 474.193 265.898 474.193 274.062C474.193 287.611 464.777 298.571 453.144 298.571C451.828 298.564 450.517 298.411 449.235 298.114" stroke="black" stroke-width="7.24" stroke-miterlimit="10"/>
<path d="M420.522 270.897C425.234 274.065 436.617 276.662 434.33 267.273C431.586 256.149 427.893 232.382 450.512 230.569C450.512 230.569 460.471 230.992 465.39 234.375" stroke="black" stroke-width="7.24" stroke-miterlimit="10"/>
<path d="M429.04 289.493C429.04 289.493 417.649 295.534 412.005 283.496" stroke="black" stroke-width="7.24" stroke-miterlimit="10"/>
<path d="M405.938 246.819C405.498 250.642 406.991 253.947 409.278 254.215C411.565 254.482 413.774 251.626 414.223 247.777C414.671 243.928 413.161 240.657 410.883 240.39C408.604 240.122 406.378 242.979 405.938 246.819Z" fill="black"/>
<path d="M443.03 249.07C442.589 252.885 444.082 256.199 446.369 256.466C448.656 256.734 450.866 253.877 451.306 250.028C451.746 246.179 450.253 242.9 447.975 242.641C445.696 242.382 443.47 245.23 443.03 249.07Z" fill="black"/>
<path d="M420.523 233.012C420.523 233.012 413.55 222.259 397.748 232.459" stroke="black" stroke-width="7.24" stroke-miterlimit="10"/>
<path d="M432.777 309.877V369.528" stroke="black" stroke-width="7.24" stroke-miterlimit="10"/>
<path d="M196.954 666.823C196.954 666.823 221.541 643.522 253.472 617.632C281.269 595.082 314.607 570.495 341.99 557.619C345.493 555.988 348.894 554.529 352.199 553.304C360.086 550.298 368.55 549.117 376.958 549.852C378.719 549.997 380.47 550.232 382.205 550.56" stroke="black" stroke-width="7.24" stroke-miterlimit="10"/>
<path d="M363.616 630.189C336.613 638.276 319.603 657.365 306.771 684.161C298.235 701.956 290.848 722.418 277.429 737.175C264.389 751.424 249.131 763.928 231.465 771.972C199.413 786.556 159.948 785.434 139.124 753.719C125.04 732.213 119.5 705.495 116.686 680.364C111.853 636.688 127.111 513.572 193.787 428.178C215.206 400.709 241.925 377.166 275.012 361.408C298.235 350.379 324.488 343.164 354.244 341.119L362.581 298.116" stroke="black" stroke-width="7.24" stroke-miterlimit="10"/>
<path d="M561.951 790.094V811.651" stroke="black" stroke-width="7.24" stroke-miterlimit="10"/>
<path d="M187.573 782.398V811.653" stroke="black" stroke-width="7.24" stroke-miterlimit="10"/>
<path d="M387.539 274.065C387.621 280.535 385.323 286.809 381.083 291.696C378.706 292.795 376.117 293.363 373.498 293.361C361.873 293.361 352.449 282.401 352.449 268.852C352.365 262.383 354.667 256.11 358.913 251.23C361.289 250.124 363.878 249.553 366.499 249.555C378.123 249.555 387.539 260.524 387.539 274.065Z" fill="#FFA800"/>
<path d="M366.516 298.574C378.127 298.574 387.539 287.601 387.539 274.065C387.539 260.529 378.127 249.555 366.516 249.555C354.905 249.555 345.493 260.529 345.493 274.065C345.493 287.601 354.905 298.574 366.516 298.574Z" stroke="black" stroke-width="7.24" stroke-miterlimit="10"/>
<path d="M616.458 59.8766C603.506 56.0156 589.701 56.082 576.787 60.0673C563.873 64.0526 552.431 71.7778 543.907 82.266C535.384 92.7544 530.162 105.535 528.902 118.99C527.642 132.446 530.401 145.974 536.829 157.863C543.257 169.75 553.066 179.466 565.016 185.779C576.965 192.093 590.518 194.72 603.962 193.332C617.405 191.942 630.134 186.598 640.54 177.974C650.946 169.35 658.56 157.834 662.421 144.882C667.599 127.514 665.665 108.802 657.045 92.8597C648.425 76.9184 633.826 65.0539 616.458 59.8766ZM582.128 175.035C580.871 174.66 579.7 174.041 578.683 173.214C577.665 172.386 576.821 171.366 576.197 170.212C575.573 169.058 575.183 167.793 575.05 166.488C574.915 165.183 575.038 163.865 575.414 162.608C575.789 161.352 576.408 160.181 577.236 159.163C578.063 158.146 579.083 157.301 580.237 156.678C582.567 155.419 585.303 155.136 587.841 155.894C590.379 156.652 592.512 158.386 593.772 160.717C595.031 163.047 595.313 165.783 594.555 168.321C593.797 170.859 592.063 172.993 589.732 174.252C587.402 175.511 584.666 175.793 582.128 175.035ZM616.648 105.184C616.504 105.529 616.366 105.866 616.234 106.194C610.634 119.969 603.669 133.15 595.444 145.538C593.45 148.559 587.202 146.694 587.185 143.07C587.302 131.806 588.166 120.562 589.774 109.413C590.775 101.266 589.998 87.3201 596.583 81.0546C602.426 75.4451 613.446 77.8529 618.641 83.238C624.38 89.2187 619.41 98.6168 616.622 105.184H616.648Z" fill="#D6D6D6"/>
<path d="M663.733 451.695C658.992 456.516 655.787 462.634 654.523 469.277C653.26 475.919 653.994 482.788 656.634 489.013C659.275 495.238 663.701 500.54 669.356 504.248C675.009 507.957 681.636 509.905 688.397 509.847C695.159 509.79 701.751 507.728 707.341 503.923C712.93 500.118 717.265 494.741 719.798 488.471C722.332 482.202 722.948 475.322 721.572 468.702C720.194 462.083 716.885 456.02 712.061 451.281C705.597 444.93 696.874 441.406 687.811 441.483C678.749 441.561 670.088 445.234 663.733 451.695ZM706.607 493.835C705.678 494.781 704.411 495.319 703.085 495.33C701.76 495.341 700.484 494.825 699.539 493.896C698.594 492.967 698.057 491.7 698.045 490.375C698.034 489.049 698.549 487.774 699.479 486.828C699.939 486.36 700.487 485.987 701.091 485.731C701.695 485.475 702.344 485.34 703 485.334C703.656 485.329 704.307 485.452 704.916 485.698C705.524 485.944 706.079 486.307 706.547 486.767C707.014 487.228 707.387 487.775 707.644 488.38C707.9 488.984 708.035 489.633 708.041 490.289C708.047 490.945 707.922 491.597 707.676 492.205C707.43 492.814 707.067 493.368 706.607 493.835ZM683.617 462.379C688.165 468.334 693.11 474.461 696.683 481.054C697.546 482.642 695.259 484.972 693.654 484.127C688.696 481.441 683.924 478.426 679.371 475.1C676.005 472.752 669.653 469.827 668.428 465.451C667.315 461.551 670.957 457.244 674.555 456.209C678.974 454.949 681.321 459.462 683.617 462.379Z" fill="#FFA800"/>
<path d="M797.757 177.908C801.163 173.719 803.249 168.614 803.752 163.239C804.256 157.864 803.156 152.46 800.589 147.711C798.021 142.962 794.104 139.081 789.331 136.558C784.558 134.035 779.145 132.984 773.774 133.538C768.405 134.092 763.319 136.226 759.162 139.67C755.005 143.114 751.962 147.713 750.418 152.887C748.874 158.059 748.899 163.574 750.49 168.733C752.08 173.892 755.166 178.463 759.354 181.869C762.135 184.131 765.335 185.823 768.771 186.848C772.206 187.873 775.81 188.212 779.376 187.843C782.942 187.476 786.401 186.409 789.555 184.704C792.709 182.999 795.496 180.69 797.757 177.908ZM760.501 147.626C760.832 147.218 761.239 146.881 761.7 146.631C762.161 146.382 762.667 146.226 763.188 146.172C763.709 146.117 764.236 146.166 764.738 146.316C765.24 146.466 765.709 146.713 766.115 147.043C766.523 147.374 766.86 147.781 767.109 148.242C767.359 148.703 767.515 149.208 767.569 149.73C767.624 150.251 767.575 150.777 767.424 151.28C767.275 151.782 767.028 152.25 766.698 152.657C766.031 153.479 765.064 154.002 764.011 154.111C762.959 154.22 761.906 153.907 761.084 153.239C760.262 152.572 759.739 151.606 759.63 150.553C759.521 149.5 759.834 148.447 760.501 147.626ZM781.153 170.927C777.088 166.534 772.713 162.064 769.356 157.058C768.545 155.859 770.219 153.839 771.531 154.392C775.687 156.163 779.72 158.21 783.604 160.519C786.452 162.133 791.725 163.971 793.028 167.371C794.202 170.383 791.63 174.085 788.842 175.138C785.399 176.467 783.19 173.058 781.153 170.875V170.927Z" fill="#FFA800"/>
<path d="M526.43 357.878C536.061 374.275 535.621 385.952 533.118 404.877C532.117 412.083 539.875 416.959 546.167 413.335C601.753 381.404 653.636 406.655 719.915 391C744.251 385.287 774.594 373.447 795.393 354.409C802.294 344.162 805.982 332.088 805.982 319.734C805.982 267.954 735.216 225.917 647.94 225.917C592.009 225.917 542.87 243.177 514.779 269.179C514.779 269.179 514.779 269.179 514.702 269.257C507.573 279.932 503.655 291.6 503.655 303.777C503.612 322.357 517.429 342.5 526.43 357.878Z" fill="#D6D6D6"/>
<path d="M503.862 303.776C503.862 304.208 503.862 304.639 503.862 305.088C504.173 323.211 513.269 340.1 524.039 354.71C531.254 364.479 539.815 375.336 537.787 387.314C536.924 392.596 533.946 397.386 533.204 402.684C532.462 407.983 535.284 414.594 540.635 414.87C544.035 415.043 546.926 412.626 549.619 410.555C565.541 398.214 586.236 393.597 606.361 392.786C626.486 391.975 646.585 394.633 666.719 395.202C695.75 396.065 725.239 392.406 752.053 381.273C776.078 371.314 798.094 354.969 812.549 333.135C826.754 311.698 818.357 280.57 803.203 261.929C788.998 244.436 768.415 233.243 747.306 225.355C690.529 204.16 625.727 204.643 569.735 227.867C553.114 234.771 537.036 243.746 524.574 256.734C512.432 269.385 503.992 286.249 503.862 303.776Z" stroke="black" stroke-width="7.24" stroke-miterlimit="10"/>
<path d="M736.821 324.401C748.86 324.401 758.62 314.641 758.62 302.602C758.62 290.562 748.86 280.802 736.821 280.802C724.781 280.802 715.021 290.562 715.021 302.602C715.021 314.641 724.781 324.401 736.821 324.401Z" fill="white"/>
<path d="M666.314 324.401C678.353 324.401 688.113 314.641 688.113 302.602C688.113 290.562 678.353 280.802 666.314 280.802C654.274 280.802 644.514 290.562 644.514 302.602C644.514 314.641 654.274 324.401 666.314 324.401Z" fill="white"/>
<path d="M594.434 324.401C606.474 324.401 616.234 314.641 616.234 302.602C616.234 290.562 606.474 280.802 594.434 280.802C582.394 280.802 572.635 290.562 572.635 302.602C572.635 314.641 582.394 324.401 594.434 324.401Z" fill="white"/>
</svg>
